<svg xmlns="http://www.w3.org/2000/svg" width="28" height="28" viewBox="0 0 28 28">
  <defs>
    <style>
      .cls-1 {
        fill: #57b987;
      }
    </style>
  </defs>
  <path id="减去_2" data-name="减去 2" class="cls-1" d="M-421-6h-20a4,4,0,0,1-4-4V-30a4,4,0,0,1,4-4h20a4.005,4.005,0,0,1,4,4v20A4,4,0,0,1-421-6Zm-16.074-21.593a1.528,1.528,0,0,0-1.519,1.519v3.037l-1.964,1.964a1.527,1.527,0,0,0,0,2.148l1.964,1.961v3.038a1.528,1.528,0,0,0,1.519,1.519h3.036l1.966,1.964A1.509,1.509,0,0,0-431-10a1.514,1.514,0,0,0,1.074-.443l1.963-1.964h3.037a1.53,1.53,0,0,0,1.52-1.519v-3.038l1.964-1.964a1.528,1.528,0,0,0,0-2.147l-1.964-1.962v-3.037a1.53,1.53,0,0,0-1.52-1.519h-3.038l-1.962-1.964A1.513,1.513,0,0,0-431-30a1.511,1.511,0,0,0-1.073.443l-1.966,1.964ZM-431-14.683v0l-4.556-8.353h2.279L-431-18.48l2.279-4.557h2.278L-431-14.684Z" transform="translate(445 34)"/>
</svg>
