<svg xmlns="http://www.w3.org/2000/svg" width="28" height="28" viewBox="0 0 28 28">
  <defs>
    <style>
      .cls-1 {
        fill: #5094f2;
      }
    </style>
  </defs>
  <path id="减去_3" data-name="减去 3" class="cls-1" d="M-421-56h-20a4,4,0,0,1-4-4V-80a4,4,0,0,1,4-4h20a4,4,0,0,1,4,4v20A4.005,4.005,0,0,1-421-56Zm-17.84-21.687a1.894,1.894,0,0,0-1.886,1.9l-.01,11.581a1.9,1.9,0,0,0,1.9,1.9h15.681a1.9,1.9,0,0,0,1.9-1.9V-75.791a1.9,1.9,0,0,0-1.9-1.9ZM-431-69.155h0l-7.585-4.74v-1.9L-431-71.05l7.583-4.74v1.9L-431-69.155Z" transform="translate(445 84)"/>
</svg>
