<svg xmlns="http://www.w3.org/2000/svg" width="28" height="28" viewBox="0 0 28 28">
  <defs>
    <style>
      .cls-1 {
        fill: #f09951;
      }
    </style>
  </defs>
  <path id="减去_4" data-name="减去 4" class="cls-1" d="M-421-106h-20a4,4,0,0,1-4-4v-20a4,4,0,0,1,4-4h20a4.005,4.005,0,0,1,4,4v20A4,4,0,0,1-421-106Zm-10.067-8.563a.6.6,0,0,1,.291.074l4.445,2.393a.832.832,0,0,0,.391.1.844.844,0,0,0,.472-.143.744.744,0,0,0,.321-.74l-.868-5.175a.616.616,0,0,1,.172-.536l3.738-3.73a.736.736,0,0,0,.181-.766.788.788,0,0,0-.637-.517l-5.1-.759a.606.606,0,0,1-.463-.34l-2.217-4.6a.809.809,0,0,0-.728-.445.807.807,0,0,0-.728.445l-2.216,4.6a.613.613,0,0,1-.464.341l-5.1.759a.8.8,0,0,0-.637.518.736.736,0,0,0,.182.764l3.736,3.73a.614.614,0,0,1,.172.536l-.866,5.174a.742.742,0,0,0,.322.742.834.834,0,0,0,.468.141.84.84,0,0,0,.395-.1l4.442-2.391A.6.6,0,0,1-431.068-114.563Z" transform="translate(445 134)"/>
</svg>
