<svg xmlns="http://www.w3.org/2000/svg" width="28" height="28" viewBox="0 0 28 28">
  <defs>
    <style>
      .cls-1 {
        fill: #5b6991;
      }
    </style>
  </defs>
  <path id="减去_5" data-name="减去 5" class="cls-1" d="M-421-172h-20a4,4,0,0,1-4-4v-20a4,4,0,0,1,4-4h20a4,4,0,0,1,4,4v20A4.005,4.005,0,0,1-421-172Zm-10-5.97a2.653,2.653,0,0,1,2.492,1.72,10,10,0,0,0,2.641-1.093,2.654,2.654,0,0,1,.545-2.976,2.649,2.649,0,0,1,1.886-.78,2.677,2.677,0,0,1,1.092.231,9.945,9.945,0,0,0,1.093-2.64A2.655,2.655,0,0,1-422.969-186a2.654,2.654,0,0,1,1.718-2.492,10.007,10.007,0,0,0-1.092-2.64,2.68,2.68,0,0,1-1.1.232,2.641,2.641,0,0,1-1.882-.781,2.653,2.653,0,0,1-.546-2.977,10.06,10.06,0,0,0-2.642-1.093A2.657,2.657,0,0,1-431-194.031a2.656,2.656,0,0,1-2.491-1.719,9.993,9.993,0,0,0-2.64,1.093,2.657,2.657,0,0,1-.546,2.977,2.647,2.647,0,0,1-1.885.779,2.675,2.675,0,0,1-1.093-.231,9.96,9.96,0,0,0-1.1,2.64A2.661,2.661,0,0,1-439.03-186a2.655,2.655,0,0,1-1.72,2.492,10.006,10.006,0,0,0,1.094,2.64,2.673,2.673,0,0,1,1.093-.232,2.642,2.642,0,0,1,1.883.781,2.688,2.688,0,0,1,.547,2.976,10.005,10.005,0,0,0,2.642,1.093A2.66,2.66,0,0,1-431-177.97Zm0-5.353A2.68,2.68,0,0,1-433.677-186,2.68,2.68,0,0,1-431-188.677,2.68,2.68,0,0,1-428.323-186,2.681,2.681,0,0,1-431-183.323Z" transform="translate(445 200)"/>
</svg>
